<?xml version="1.0" encoding="utf-8"?>
<!-- Generator: Adobe Illustrator 22.1.0, SVG Export Plug-In . SVG Version: 6.00 Build 0)  -->
<svg version="1.1" id="Layer_1" xmlns="http://www.w3.org/2000/svg" xmlns:xlink="http://www.w3.org/1999/xlink" x="0px" y="0px"
	 viewBox="0 0 512 512" style="enable-background:new 0 0 512 512;" xml:space="preserve">
<style type="text/css">
	.st0{fill:#FFFFFF;}
	.st1{fill:#9B9B9B;}
	.st2{fill:#7D67F0;}
</style>
<g id="Group_127" transform="translate(0 -12.264)">
	<g id="Group_124">
		<g id="Path_394">
			<path class="st2" d="M198.6,389.5c-11.9,0-23.7-4-33.4-11.8c-16.3-13.2-23.3-34.9-17.8-55.1l2.8-10.4l82.2,66.5l-9.6,4.9
				C215.2,387.6,206.8,389.5,198.6,389.5z M159.6,337.8c0.4,11.1,5.5,21.7,14.4,29c8.9,7.2,20.3,10,31.3,8.1L159.6,337.8z"/>
		</g>
		<g id="Path_395">
			<path class="st2" d="M380.2,197.4l-5.1-8.5c-5.8-9.7-13.2-18.1-22-25.2v0c-8.8-7.1-18.6-12.5-29.2-16.2l-9.5-3.3l7.3-8.9
				c14.2-17.5,40-20.2,57.5-6l2.2,1.8c17.5,14.2,20.2,40,6.1,57.5L380.2,197.4z M361.9,152.8c7.1,5.7,13.4,12.3,18.8,19.5
				c3.9-10.5,0.9-22.9-8.3-30.3l-2.2-1.8c-9.2-7.4-21.9-7.8-31.4-1.8C347.1,142.3,354.8,147.1,361.9,152.8L361.9,152.8z"/>
		</g>
		<g id="Path_396">
			<path class="st2" d="M305.2,416.3c-3.6,0-7.2-1.2-10.2-3.7L121.7,272.3c-5.9-4.7-7.8-12.8-4.4-19.6c3.1-6.3,10-9.8,16.9-8.6
				c6.8-0.1,13.4-1.9,19.3-5.2c25.8-14.8,48-34.4,65.9-58.2c33-39.9,91.9-45.4,131.5-12.6c39.3,32.5,45.4,89.4,13.9,129.5
				c-20,23-34.5,48.7-43.7,77.1c-2,6.4-2.4,13.3-1.1,20c2.6,6.4,0.7,14-4.9,18.3C312.1,415.2,308.6,416.3,305.2,416.3z M131.3,257.9
				c-0.6,0-1.2,0.4-1.5,0.9c-0.4,0.9-0.2,1.9,0.6,2.5l173.4,140.4c0.8,0.6,1.8,0.7,2.6,0.1c0.6-0.5,0.8-1.3,0.5-2l-0.5-1.6
				c-2-9.2-1.6-18.9,1.3-27.9c9.8-30.2,25.3-57.6,46.1-81.5c26.7-34.1,21.6-82.4-11.8-110c-33.7-27.9-83.7-23.1-111.6,10.5
				c-18.8,25.1-42.4,45.9-69.9,61.7c-8.2,4.7-17.9,7.3-27,7.1l-1.7-0.2C131.6,257.9,131.5,257.9,131.3,257.9z"/>
		</g>
	</g>
</g>
</svg>
