<?xml version="1.0" encoding="utf-8"?>
<!-- Generator: Adobe Illustrator 22.1.0, SVG Export Plug-In . SVG Version: 6.00 Build 0)  -->
<svg version="1.1" id="Layer_1" xmlns="http://www.w3.org/2000/svg" xmlns:xlink="http://www.w3.org/1999/xlink" x="0px" y="0px"
	 viewBox="0 0 512 512" style="enable-background:new 0 0 512 512;" xml:space="preserve">
<style type="text/css">
	.st0{clip-path:url(#SVGID_2_);fill:#EB85E1;}
	.st1{clip-path:url(#SVGID_2_);fill:#EA85E1;}
	.st2{clip-path:url(#SVGID_2_);fill:#E984E1;}
	.st3{clip-path:url(#SVGID_2_);fill:#E884E1;}
	.st4{clip-path:url(#SVGID_2_);fill:#E784E2;}
	.st5{clip-path:url(#SVGID_2_);fill:#E684E2;}
	.st6{clip-path:url(#SVGID_2_);fill:#E583E2;}
	.st7{clip-path:url(#SVGID_2_);fill:#E483E2;}
	.st8{clip-path:url(#SVGID_2_);fill:#E383E2;}
	.st9{clip-path:url(#SVGID_2_);fill:#E283E2;}
	.st10{clip-path:url(#SVGID_2_);fill:#E182E2;}
	.st11{clip-path:url(#SVGID_2_);fill:#E082E3;}
	.st12{clip-path:url(#SVGID_2_);fill:#DF82E3;}
	.st13{clip-path:url(#SVGID_2_);fill:#DE81E3;}
	.st14{clip-path:url(#SVGID_2_);fill:#DD81E3;}
	.st15{clip-path:url(#SVGID_2_);fill:#DC81E3;}
	.st16{clip-path:url(#SVGID_2_);fill:#DB81E3;}
	.st17{clip-path:url(#SVGID_2_);fill:#DA80E3;}
	.st18{clip-path:url(#SVGID_2_);fill:#D980E4;}
	.st19{clip-path:url(#SVGID_2_);fill:#D880E4;}
	.st20{clip-path:url(#SVGID_2_);fill:#D780E4;}
	.st21{clip-path:url(#SVGID_2_);fill:#D67FE4;}
	.st22{clip-path:url(#SVGID_2_);fill:#D57FE4;}
	.st23{clip-path:url(#SVGID_2_);fill:#D47FE4;}
	.st24{clip-path:url(#SVGID_2_);fill:#D37EE4;}
	.st25{clip-path:url(#SVGID_2_);fill:#D27EE4;}
	.st26{clip-path:url(#SVGID_2_);fill:#D17EE5;}
	.st27{clip-path:url(#SVGID_2_);fill:#D07EE5;}
	.st28{clip-path:url(#SVGID_2_);fill:#CF7DE5;}
	.st29{clip-path:url(#SVGID_2_);fill:#CE7DE5;}
	.st30{clip-path:url(#SVGID_2_);fill:#CD7DE5;}
	.st31{clip-path:url(#SVGID_2_);fill:#CC7CE5;}
	.st32{clip-path:url(#SVGID_2_);fill:#CB7CE5;}
	.st33{clip-path:url(#SVGID_2_);fill:#CA7CE6;}
	.st34{clip-path:url(#SVGID_2_);fill:#C97CE6;}
	.st35{clip-path:url(#SVGID_2_);fill:#C87BE6;}
	.st36{clip-path:url(#SVGID_2_);fill:#C77BE6;}
	.st37{clip-path:url(#SVGID_2_);fill:#C67BE6;}
	.st38{clip-path:url(#SVGID_2_);fill:#C57BE6;}
	.st39{clip-path:url(#SVGID_2_);fill:#C47AE6;}
	.st40{clip-path:url(#SVGID_2_);fill:#C37AE7;}
	.st41{clip-path:url(#SVGID_2_);fill:#C27AE7;}
	.st42{clip-path:url(#SVGID_2_);fill:#C179E7;}
	.st43{clip-path:url(#SVGID_2_);fill:#C079E7;}
	.st44{clip-path:url(#SVGID_2_);fill:#BF79E7;}
	.st45{clip-path:url(#SVGID_2_);fill:#BE79E7;}
	.st46{clip-path:url(#SVGID_2_);fill:#BD78E7;}
	.st47{clip-path:url(#SVGID_2_);fill:#BC78E8;}
	.st48{clip-path:url(#SVGID_2_);fill:#BB78E8;}
	.st49{clip-path:url(#SVGID_2_);fill:#BA78E8;}
	.st50{clip-path:url(#SVGID_2_);fill:#B977E8;}
	.st51{clip-path:url(#SVGID_2_);fill:#B877E8;}
	.st52{clip-path:url(#SVGID_2_);fill:#B777E8;}
	.st53{clip-path:url(#SVGID_2_);fill:#B676E8;}
	.st54{clip-path:url(#SVGID_2_);fill:#B576E9;}
	.st55{clip-path:url(#SVGID_2_);fill:#B476E9;}
	.st56{clip-path:url(#SVGID_2_);fill:#B376E9;}
	.st57{clip-path:url(#SVGID_2_);fill:#B275E9;}
	.st58{clip-path:url(#SVGID_2_);fill:#B175E9;}
	.st59{clip-path:url(#SVGID_2_);fill:#B075E9;}
	.st60{clip-path:url(#SVGID_2_);fill:#AF75E9;}
	.st61{clip-path:url(#SVGID_2_);fill:#AE74EA;}
	.st62{clip-path:url(#SVGID_2_);fill:#AD74EA;}
	.st63{clip-path:url(#SVGID_2_);fill:#AC74EA;}
	.st64{clip-path:url(#SVGID_2_);fill:#AB73EA;}
	.st65{clip-path:url(#SVGID_2_);fill:#AA73EA;}
	.st66{clip-path:url(#SVGID_2_);fill:#A973EA;}
	.st67{clip-path:url(#SVGID_2_);fill:#A873EA;}
	.st68{clip-path:url(#SVGID_2_);fill:#A772EA;}
	.st69{clip-path:url(#SVGID_2_);fill:#A672EB;}
	.st70{clip-path:url(#SVGID_2_);fill:#A572EB;}
	.st71{clip-path:url(#SVGID_2_);fill:#A472EB;}
	.st72{clip-path:url(#SVGID_2_);fill:#A371EB;}
	.st73{clip-path:url(#SVGID_2_);fill:#A271EB;}
	.st74{clip-path:url(#SVGID_2_);fill:#A171EB;}
	.st75{clip-path:url(#SVGID_2_);fill:#A070EB;}
	.st76{clip-path:url(#SVGID_2_);fill:#9F70EC;}
	.st77{clip-path:url(#SVGID_2_);fill:#9E70EC;}
	.st78{clip-path:url(#SVGID_2_);fill:#9D70EC;}
	.st79{clip-path:url(#SVGID_2_);fill:#9C6FEC;}
	.st80{clip-path:url(#SVGID_2_);fill:#9B6FEC;}
	.st81{clip-path:url(#SVGID_2_);fill:#9A6FEC;}
	.st82{clip-path:url(#SVGID_2_);fill:#996EEC;}
	.st83{clip-path:url(#SVGID_2_);fill:#986EED;}
	.st84{clip-path:url(#SVGID_2_);fill:#976EED;}
	.st85{clip-path:url(#SVGID_2_);fill:#966EED;}
	.st86{clip-path:url(#SVGID_2_);fill:#956DED;}
	.st87{clip-path:url(#SVGID_2_);fill:#946DED;}
	.st88{clip-path:url(#SVGID_2_);fill:#936DED;}
	.st89{clip-path:url(#SVGID_2_);fill:#926DED;}
	.st90{clip-path:url(#SVGID_2_);fill:#916CEE;}
	.st91{clip-path:url(#SVGID_2_);fill:#906CEE;}
	.st92{clip-path:url(#SVGID_2_);fill:#8F6CEE;}
	.st93{clip-path:url(#SVGID_2_);fill:#8E6BEE;}
	.st94{clip-path:url(#SVGID_2_);fill:#8D6BEE;}
	.st95{clip-path:url(#SVGID_2_);fill:#8C6BEE;}
	.st96{clip-path:url(#SVGID_2_);fill:#8B6BEE;}
	.st97{clip-path:url(#SVGID_2_);fill:#8A6AEF;}
	.st98{clip-path:url(#SVGID_2_);fill:#896AEF;}
	.st99{clip-path:url(#SVGID_2_);fill:#886AEF;}
	.st100{clip-path:url(#SVGID_2_);fill:#876AEF;}
	.st101{clip-path:url(#SVGID_2_);fill:#8669EF;}
	.st102{clip-path:url(#SVGID_2_);fill:#8569EF;}
	.st103{clip-path:url(#SVGID_2_);fill:#8469EF;}
	.st104{clip-path:url(#SVGID_2_);fill:#8368F0;}
	.st105{clip-path:url(#SVGID_2_);fill:#8268F0;}
	.st106{clip-path:url(#SVGID_2_);fill:#8168F0;}
	.st107{clip-path:url(#SVGID_2_);fill:#8068F0;}
	.st108{clip-path:url(#SVGID_2_);fill:#7E67F0;}
	.st109{clip-path:url(#SVGID_2_);fill:#7D67F0;}
	.st110{clip-path:url(#SVGID_2_);fill:#7C67F0;}
	.st111{clip-path:url(#SVGID_2_);fill:#7B67F0;}
	.st112{clip-path:url(#SVGID_2_);fill:#7A66F1;}
	.st113{clip-path:url(#SVGID_2_);fill:#7966F1;}
	.st114{clip-path:url(#SVGID_2_);fill:#7866F1;}
	.st115{clip-path:url(#SVGID_2_);fill:#7765F1;}
	.st116{clip-path:url(#SVGID_2_);fill:#7665F1;}
	.st117{clip-path:url(#SVGID_2_);fill:#7565F1;}
	.st118{clip-path:url(#SVGID_2_);fill:#7465F1;}
	.st119{clip-path:url(#SVGID_2_);fill:#7364F2;}
	.st120{clip-path:url(#SVGID_2_);fill:#7264F2;}
	.st121{clip-path:url(#SVGID_2_);fill:#7164F2;}
	.st122{clip-path:url(#SVGID_2_);fill:#7064F2;}
	.st123{clip-path:url(#SVGID_2_);fill:#6F63F2;}
	.st124{clip-path:url(#SVGID_2_);fill:#6E63F2;}
	.st125{clip-path:url(#SVGID_2_);fill:#6D63F2;}
	.st126{clip-path:url(#SVGID_2_);fill:#6C62F3;}
	.st127{clip-path:url(#SVGID_2_);fill:#6B62F3;}
	.st128{clip-path:url(#SVGID_2_);fill:#6A62F3;}
	.st129{clip-path:url(#SVGID_2_);fill:#6962F3;}
	.st130{clip-path:url(#SVGID_2_);fill:#6861F3;}
	.st131{clip-path:url(#SVGID_2_);fill:#6761F3;}
	.st132{clip-path:url(#SVGID_2_);fill:#6661F3;}
	.st133{clip-path:url(#SVGID_2_);fill:#6561F4;}
	.st134{clip-path:url(#SVGID_2_);fill:#6460F4;}
	.st135{clip-path:url(#SVGID_2_);fill:#6360F4;}
	.st136{clip-path:url(#SVGID_2_);fill:#6260F4;}
	.st137{clip-path:url(#SVGID_2_);fill:#615FF4;}
	.st138{clip-path:url(#SVGID_2_);fill:#605FF4;}
	.st139{clip-path:url(#SVGID_2_);fill:#5F5FF4;}
	.st140{clip-path:url(#SVGID_2_);fill:#5E5FF5;}
	.st141{clip-path:url(#SVGID_2_);fill:#5D5EF5;}
	.st142{clip-path:url(#SVGID_2_);fill:#5C5EF5;}
	.st143{clip-path:url(#SVGID_2_);fill:#5B5EF5;}
	.st144{clip-path:url(#SVGID_2_);fill:#5A5DF5;}
	.st145{clip-path:url(#SVGID_2_);fill:#595DF5;}
	.st146{clip-path:url(#SVGID_2_);fill:#585DF5;}
	.st147{clip-path:url(#SVGID_2_);fill:#575DF6;}
	.st148{clip-path:url(#SVGID_2_);fill:#565CF6;}
	.st149{clip-path:url(#SVGID_2_);fill:#555CF6;}
	.st150{clip-path:url(#SVGID_2_);fill:#545CF6;}
	.st151{clip-path:url(#SVGID_2_);fill:#535CF6;}
	.st152{clip-path:url(#SVGID_2_);fill:#525BF6;}
	.st153{clip-path:url(#SVGID_2_);fill:#515BF6;}
	.st154{clip-path:url(#SVGID_2_);fill:#505BF6;}
	.st155{clip-path:url(#SVGID_2_);fill:#4F5AF7;}
	.st156{clip-path:url(#SVGID_2_);fill:#4E5AF7;}
	.st157{clip-path:url(#SVGID_2_);fill:#4D5AF7;}
	.st158{clip-path:url(#SVGID_2_);fill:#4C5AF7;}
	.st159{clip-path:url(#SVGID_2_);fill:#4B59F7;}
	.st160{clip-path:url(#SVGID_2_);fill:#4A59F7;}
	.st161{clip-path:url(#SVGID_2_);fill:#4959F7;}
	.st162{clip-path:url(#SVGID_2_);fill:#4859F8;}
	.st163{clip-path:url(#SVGID_2_);fill:#4758F8;}
	.st164{clip-path:url(#SVGID_2_);fill:#4658F8;}
	.st165{clip-path:url(#SVGID_2_);fill:#4558F8;}
	.st166{clip-path:url(#SVGID_2_);fill:#4457F8;}
	.st167{clip-path:url(#SVGID_2_);fill:#4357F8;}
	.st168{clip-path:url(#SVGID_2_);fill:#4257F8;}
	.st169{clip-path:url(#SVGID_2_);fill:#4157F9;}
	.st170{clip-path:url(#SVGID_2_);fill:#4056F9;}
	.st171{clip-path:url(#SVGID_2_);fill:#3F56F9;}
	.st172{clip-path:url(#SVGID_2_);fill:#3E56F9;}
	.st173{clip-path:url(#SVGID_2_);fill:#3D56F9;}
	.st174{clip-path:url(#SVGID_2_);fill:#3C55F9;}
	.st175{clip-path:url(#SVGID_2_);fill:#3B55F9;}
	.st176{clip-path:url(#SVGID_2_);fill:#3A55FA;}
	.st177{clip-path:url(#SVGID_2_);fill:#3954FA;}
	.st178{clip-path:url(#SVGID_2_);fill:#3854FA;}
	.st179{clip-path:url(#SVGID_2_);fill:#3754FA;}
	.st180{clip-path:url(#SVGID_2_);fill:#3654FA;}
	.st181{clip-path:url(#SVGID_2_);fill:#3553FA;}
	.st182{clip-path:url(#SVGID_2_);fill:#3453FA;}
	.st183{clip-path:url(#SVGID_2_);fill:#3353FB;}
	.st184{clip-path:url(#SVGID_2_);fill:#3253FB;}
	.st185{clip-path:url(#SVGID_2_);fill:#3152FB;}
	.st186{clip-path:url(#SVGID_2_);fill:#3052FB;}
	.st187{clip-path:url(#SVGID_2_);fill:#2F52FB;}
	.st188{clip-path:url(#SVGID_2_);fill:#2E51FB;}
	.st189{clip-path:url(#SVGID_2_);fill:#2D51FB;}
	.st190{clip-path:url(#SVGID_2_);fill:#2C51FC;}
	.st191{clip-path:url(#SVGID_2_);fill:#2B51FC;}
	.st192{clip-path:url(#SVGID_2_);fill:#2A50FC;}
	.st193{clip-path:url(#SVGID_2_);fill:#2950FC;}
	.st194{clip-path:url(#SVGID_2_);fill:#2850FC;}
	.st195{clip-path:url(#SVGID_2_);fill:#274FFC;}
	.st196{clip-path:url(#SVGID_2_);fill:#264FFC;}
	.st197{clip-path:url(#SVGID_2_);fill:#254FFC;}
	.st198{clip-path:url(#SVGID_2_);fill:#244FFD;}
	.st199{clip-path:url(#SVGID_2_);fill:#234EFD;}
	.st200{clip-path:url(#SVGID_2_);fill:#224EFD;}
	.st201{clip-path:url(#SVGID_2_);fill:#214EFD;}
	.st202{clip-path:url(#SVGID_2_);fill:#204EFD;}
	.st203{clip-path:url(#SVGID_2_);fill:#1F4DFD;}
	.st204{clip-path:url(#SVGID_2_);fill:#1E4DFD;}
	.st205{clip-path:url(#SVGID_2_);fill:#1D4DFE;}
	.st206{clip-path:url(#SVGID_2_);fill:#1C4CFE;}
	.st207{clip-path:url(#SVGID_2_);fill:#1B4CFE;}
	.st208{clip-path:url(#SVGID_2_);fill:#1A4CFE;}
	.st209{clip-path:url(#SVGID_2_);fill:#194CFE;}
	.st210{clip-path:url(#SVGID_2_);fill:#184BFE;}
	.st211{clip-path:url(#SVGID_2_);fill:#174BFE;}
	.st212{clip-path:url(#SVGID_2_);fill:#164BFF;}
	.st213{clip-path:url(#SVGID_2_);fill:#154BFF;}
	.st214{clip-path:url(#SVGID_2_);fill:#144AFF;}
	.st215{clip-path:url(#SVGID_2_);fill:#134AFF;}
	.st216{enable-background:new    ;}
	.st217{fill:#FFFFFF;}
</style>
<g id="Group_175" transform="translate(-145 -98)">
	<g id="Group_174">
		<g id="Group_9" transform="translate(0.5 20)">
			<g id="Ellipse_5">
				<g>
					<defs>
						<circle id="SVGID_1_" cx="400.5" cy="334" r="185.5"/>
					</defs>
					<clipPath id="SVGID_2_">
						<use xlink:href="#SVGID_1_"  style="overflow:visible;"/>
					</clipPath>
					<polygon class="st0" points="378.9,148.5 215,202.7 215,148.5 					"/>
					<polygon class="st0" points="384.4,148.5 215,204.5 215,202.7 378.9,148.5 					"/>
					<polygon class="st1" points="389.9,148.5 215,206.3 215,204.5 384.4,148.5 					"/>
					<polygon class="st2" points="395.4,148.5 215,208.1 215,206.3 389.9,148.5 					"/>
					<polygon class="st3" points="400.9,148.5 215,210 215,208.1 395.4,148.5 					"/>
					<polygon class="st4" points="406.5,148.5 215,211.8 215,210 400.9,148.5 					"/>
					<polygon class="st5" points="412,148.5 215,213.6 215,211.8 406.5,148.5 					"/>
					<polygon class="st6" points="417.5,148.5 215,215.4 215,213.6 412,148.5 					"/>
					<polygon class="st7" points="423,148.5 215,217.2 215,215.4 417.5,148.5 					"/>
					<polygon class="st8" points="428.5,148.5 215,219.1 215,217.2 423,148.5 					"/>
					<polygon class="st9" points="434,148.5 215,220.9 215,219.1 428.5,148.5 					"/>
					<polygon class="st10" points="439.5,148.5 215,222.7 215,220.9 434,148.5 					"/>
					<polygon class="st11" points="445,148.5 215,224.5 215,222.7 439.5,148.5 					"/>
					<polygon class="st12" points="450.5,148.5 215,226.4 215,224.5 445,148.5 					"/>
					<polygon class="st13" points="456,148.5 215,228.2 215,226.4 450.5,148.5 					"/>
					<polygon class="st14" points="461.6,148.5 215,230 215,228.2 456,148.5 					"/>
					<polygon class="st15" points="467.1,148.5 215,231.8 215,230 461.6,148.5 					"/>
					<polygon class="st16" points="472.6,148.5 215,233.6 215,231.8 467.1,148.5 					"/>
					<polygon class="st17" points="478.1,148.5 215,235.5 215,233.6 472.6,148.5 					"/>
					<polygon class="st18" points="483.6,148.5 215,237.3 215,235.5 478.1,148.5 					"/>
					<polygon class="st19" points="489.1,148.5 215,239.1 215,237.3 483.6,148.5 					"/>
					<polygon class="st20" points="494.6,148.5 215,240.9 215,239.1 489.1,148.5 					"/>
					<polygon class="st21" points="500.1,148.5 215,242.7 215,240.9 494.6,148.5 					"/>
					<polygon class="st22" points="505.6,148.5 215,244.6 215,242.7 500.1,148.5 					"/>
					<polygon class="st23" points="511.2,148.5 215,246.4 215,244.6 505.6,148.5 					"/>
					<polygon class="st24" points="516.7,148.5 215,248.2 215,246.4 511.2,148.5 					"/>
					<polygon class="st25" points="522.2,148.5 215,250 215,248.2 516.7,148.5 					"/>
					<polygon class="st26" points="527.7,148.5 215,251.9 215,250 522.2,148.5 					"/>
					<polygon class="st27" points="533.2,148.5 215,253.7 215,251.9 527.7,148.5 					"/>
					<polygon class="st28" points="538.7,148.5 215,255.5 215,253.7 533.2,148.5 					"/>
					<polygon class="st29" points="544.2,148.5 215,257.3 215,255.5 538.7,148.5 					"/>
					<polygon class="st30" points="549.7,148.5 215,259.1 215,257.3 544.2,148.5 					"/>
					<polygon class="st31" points="555.2,148.5 215,261 215,259.1 549.7,148.5 					"/>
					<polygon class="st32" points="560.7,148.5 215,262.8 215,261 555.2,148.5 					"/>
					<polygon class="st33" points="566.3,148.5 215,264.6 215,262.8 560.7,148.5 					"/>
					<polygon class="st34" points="571.8,148.5 215,266.4 215,264.6 566.3,148.5 					"/>
					<polygon class="st35" points="577.3,148.5 215,268.2 215,266.4 571.8,148.5 					"/>
					<polygon class="st36" points="582.8,148.5 215,270.1 215,268.2 577.3,148.5 					"/>
					<polygon class="st37" points="586,149.3 215,271.9 215,270.1 582.8,148.5 586,148.5 					"/>
					<polygon class="st38" points="586,151.1 215,273.7 215,271.9 586,149.3 					"/>
					<polygon class="st39" points="586,152.9 215,275.5 215,273.7 586,151.1 					"/>
					<polygon class="st40" points="586,154.7 215,277.4 215,275.5 586,152.9 					"/>
					<polygon class="st41" points="586,156.5 215,279.2 215,277.4 586,154.7 					"/>
					<polygon class="st42" points="586,158.4 215,281 215,279.2 586,156.5 					"/>
					<polygon class="st43" points="586,160.2 215,282.8 215,281 586,158.4 					"/>
					<polygon class="st44" points="586,162 215,284.6 215,282.8 586,160.2 					"/>
					<polygon class="st45" points="586,163.8 215,286.5 215,284.6 586,162 					"/>
					<polygon class="st46" points="586,165.7 215,288.3 215,286.5 586,163.8 					"/>
					<polygon class="st47" points="586,167.5 215,290.1 215,288.3 586,165.7 					"/>
					<polygon class="st48" points="586,169.3 215,291.9 215,290.1 586,167.5 					"/>
					<polygon class="st49" points="586,171.1 215,293.7 215,291.9 586,169.3 					"/>
					<polygon class="st50" points="586,172.9 215,295.6 215,293.7 586,171.1 					"/>
					<polygon class="st51" points="586,174.8 215,297.4 215,295.6 586,172.9 					"/>
					<polygon class="st52" points="586,176.6 215,299.2 215,297.4 586,174.8 					"/>
					<polygon class="st53" points="586,178.4 215,301 215,299.2 586,176.6 					"/>
					<polygon class="st54" points="586,180.2 215,302.9 215,301 586,178.4 					"/>
					<polygon class="st55" points="586,182 215,304.7 215,302.9 586,180.2 					"/>
					<polygon class="st56" points="586,183.9 215,306.5 215,304.7 586,182 					"/>
					<polygon class="st57" points="586,185.7 215,308.3 215,306.5 586,183.9 					"/>
					<polygon class="st58" points="586,187.5 215,310.1 215,308.3 586,185.7 					"/>
					<polygon class="st59" points="586,189.3 215,312 215,310.1 586,187.5 					"/>
					<polygon class="st60" points="586,191.2 215,313.8 215,312 586,189.3 					"/>
					<polygon class="st61" points="586,193 215,315.6 215,313.8 586,191.2 					"/>
					<polygon class="st62" points="586,194.8 215,317.4 215,315.6 586,193 					"/>
					<polygon class="st63" points="586,196.6 215,319.2 215,317.4 586,194.8 					"/>
					<polygon class="st64" points="586,198.4 215,321.1 215,319.2 586,196.6 					"/>
					<polygon class="st65" points="586,200.3 215,322.9 215,321.1 586,198.4 					"/>
					<polygon class="st66" points="586,202.1 215,324.7 215,322.9 586,200.3 					"/>
					<polygon class="st67" points="586,203.9 215,326.5 215,324.7 586,202.1 					"/>
					<polygon class="st68" points="586,205.7 215,328.4 215,326.5 586,203.9 					"/>
					<polygon class="st69" points="586,207.5 215,330.2 215,328.4 586,205.7 					"/>
					<polygon class="st70" points="586,209.4 215,332 215,330.2 586,207.5 					"/>
					<polygon class="st71" points="586,211.2 215,333.8 215,332 586,209.4 					"/>
					<polygon class="st72" points="586,213 215,335.6 215,333.8 586,211.2 					"/>
					<polygon class="st73" points="586,214.8 215,337.5 215,335.6 586,213 					"/>
					<polygon class="st74" points="586,216.7 215,339.3 215,337.5 586,214.8 					"/>
					<polygon class="st75" points="586,218.5 215,341.1 215,339.3 586,216.7 					"/>
					<polygon class="st76" points="586,220.3 215,342.9 215,341.1 586,218.5 					"/>
					<polygon class="st77" points="586,222.1 215,344.7 215,342.9 586,220.3 					"/>
					<polygon class="st78" points="586,223.9 215,346.6 215,344.7 586,222.1 					"/>
					<polygon class="st79" points="586,225.8 215,348.4 215,346.6 586,223.9 					"/>
					<polygon class="st80" points="586,227.6 215,350.2 215,348.4 586,225.8 					"/>
					<polygon class="st81" points="586,229.4 215,352 215,350.2 586,227.6 					"/>
					<polygon class="st82" points="586,231.2 215,353.9 215,352 586,229.4 					"/>
					<polygon class="st83" points="586,233 215,355.7 215,353.9 586,231.2 					"/>
					<polygon class="st84" points="586,234.9 215,357.5 215,355.7 586,233 					"/>
					<polygon class="st85" points="586,236.7 215,359.3 215,357.5 586,234.9 					"/>
					<polygon class="st86" points="586,238.5 215,361.1 215,359.3 586,236.7 					"/>
					<polygon class="st87" points="586,240.3 215,363 215,361.1 586,238.5 					"/>
					<polygon class="st88" points="586,242.2 215,364.8 215,363 586,240.3 					"/>
					<polygon class="st89" points="586,244 215,366.6 215,364.8 586,242.2 					"/>
					<polygon class="st90" points="586,245.8 215,368.4 215,366.6 586,244 					"/>
					<polygon class="st91" points="586,247.6 215,370.2 215,368.4 586,245.8 					"/>
					<polygon class="st92" points="586,249.4 215,372.1 215,370.2 586,247.6 					"/>
					<polygon class="st93" points="586,251.3 215,373.9 215,372.1 586,249.4 					"/>
					<polygon class="st94" points="586,253.1 215,375.7 215,373.9 586,251.3 					"/>
					<polygon class="st95" points="586,254.9 215,377.5 215,375.7 586,253.1 					"/>
					<polygon class="st96" points="586,256.7 215,379.4 215,377.5 586,254.9 					"/>
					<polygon class="st97" points="586,258.5 215,381.2 215,379.4 586,256.7 					"/>
					<polygon class="st98" points="586,260.4 215,383 215,381.2 586,258.5 					"/>
					<polygon class="st99" points="586,262.2 215,384.8 215,383 586,260.4 					"/>
					<polygon class="st100" points="586,264 215,386.6 215,384.8 586,262.2 					"/>
					<polygon class="st101" points="586,265.8 215,388.5 215,386.6 586,264 					"/>
					<polygon class="st102" points="586,267.7 215,390.3 215,388.5 586,265.8 					"/>
					<polygon class="st103" points="586,269.5 215,392.1 215,390.3 586,267.7 					"/>
					<polygon class="st104" points="586,271.3 215,393.9 215,392.1 586,269.5 					"/>
					<polygon class="st105" points="586,273.1 215,395.7 215,393.9 586,271.3 					"/>
					<polygon class="st106" points="586,274.9 215,397.6 215,395.7 586,273.1 					"/>
					<polygon class="st107" points="586,276.8 215,399.4 215,397.6 586,274.9 					"/>
					<polygon class="st108" points="586,278.6 215,401.2 215,399.4 586,276.8 					"/>
					<polygon class="st109" points="586,280.4 215,403 215,401.2 586,278.6 					"/>
					<polygon class="st110" points="586,282.2 215,404.9 215,403 586,280.4 					"/>
					<polygon class="st111" points="586,284 215,406.7 215,404.9 586,282.2 					"/>
					<polygon class="st112" points="586,285.9 215,408.5 215,406.7 586,284 					"/>
					<polygon class="st113" points="586,287.7 215,410.3 215,408.5 586,285.9 					"/>
					<polygon class="st114" points="586,289.5 215,412.1 215,410.3 586,287.7 					"/>
					<polygon class="st115" points="586,291.3 215,414 215,412.1 586,289.5 					"/>
					<polygon class="st116" points="586,293.2 215,415.8 215,414 586,291.3 					"/>
					<polygon class="st117" points="586,295 215,417.6 215,415.8 586,293.2 					"/>
					<polygon class="st118" points="586,296.8 215,419.4 215,417.6 586,295 					"/>
					<polygon class="st119" points="586,298.6 215,421.2 215,419.4 586,296.8 					"/>
					<polygon class="st120" points="586,300.4 215,423.1 215,421.2 586,298.6 					"/>
					<polygon class="st121" points="586,302.3 215,424.9 215,423.1 586,300.4 					"/>
					<polygon class="st122" points="586,304.1 215,426.7 215,424.9 586,302.3 					"/>
					<polygon class="st123" points="586,305.9 215,428.5 215,426.7 586,304.1 					"/>
					<polygon class="st124" points="586,307.7 215,430.4 215,428.5 586,305.9 					"/>
					<polygon class="st125" points="586,309.5 215,432.2 215,430.4 586,307.7 					"/>
					<polygon class="st126" points="586,311.4 215,434 215,432.2 586,309.5 					"/>
					<polygon class="st127" points="586,313.2 215,435.8 215,434 586,311.4 					"/>
					<polygon class="st128" points="586,315 215,437.6 215,435.8 586,313.2 					"/>
					<polygon class="st129" points="586,316.8 215,439.5 215,437.6 586,315 					"/>
					<polygon class="st130" points="586,318.7 215,441.3 215,439.5 586,316.8 					"/>
					<polygon class="st131" points="586,320.5 215,443.1 215,441.3 586,318.7 					"/>
					<polygon class="st132" points="586,322.3 215,444.9 215,443.1 586,320.5 					"/>
					<polygon class="st133" points="586,324.1 215,446.7 215,444.9 586,322.3 					"/>
					<polygon class="st134" points="586,325.9 215,448.6 215,446.7 586,324.1 					"/>
					<polygon class="st135" points="586,327.8 215,450.4 215,448.6 586,325.9 					"/>
					<polygon class="st136" points="586,329.6 215,452.2 215,450.4 586,327.8 					"/>
					<polygon class="st137" points="586,331.4 215,454 215,452.2 586,329.6 					"/>
					<polygon class="st138" points="586,333.2 215,455.9 215,454 586,331.4 					"/>
					<polygon class="st139" points="586,335 215,457.7 215,455.9 586,333.2 					"/>
					<polygon class="st140" points="586,336.9 215,459.5 215,457.7 586,335 					"/>
					<polygon class="st141" points="586,338.7 215,461.3 215,459.5 586,336.9 					"/>
					<polygon class="st142" points="586,340.5 215,463.1 215,461.3 586,338.7 					"/>
					<polygon class="st143" points="586,342.3 215,465 215,463.1 586,340.5 					"/>
					<polygon class="st144" points="586,344.2 215,466.8 215,465 586,342.3 					"/>
					<polygon class="st145" points="586,346 215,468.6 215,466.8 586,344.2 					"/>
					<polygon class="st146" points="586,347.8 215,470.4 215,468.6 586,346 					"/>
					<polygon class="st147" points="586,349.6 215,472.2 215,470.4 586,347.8 					"/>
					<polygon class="st148" points="586,351.4 215,474.1 215,472.2 586,349.6 					"/>
					<polygon class="st149" points="586,353.3 215,475.9 215,474.1 586,351.4 					"/>
					<polygon class="st150" points="586,355.1 215,477.7 215,475.9 586,353.3 					"/>
					<polygon class="st151" points="586,356.9 215,479.5 215,477.7 586,355.1 					"/>
					<polygon class="st152" points="586,358.7 215,481.4 215,479.5 586,356.9 					"/>
					<polygon class="st153" points="586,360.5 215,483.2 215,481.4 586,358.7 					"/>
					<polygon class="st154" points="586,362.4 215,485 215,483.2 586,360.5 					"/>
					<polygon class="st155" points="586,364.2 215,486.8 215,485 586,362.4 					"/>
					<polygon class="st156" points="586,366 215,488.6 215,486.8 586,364.2 					"/>
					<polygon class="st157" points="586,367.8 215,490.5 215,488.6 586,366 					"/>
					<polygon class="st158" points="586,369.7 215,492.3 215,490.5 586,367.8 					"/>
					<polygon class="st159" points="586,371.5 215,494.1 215,492.3 586,369.7 					"/>
					<polygon class="st160" points="586,373.3 215,495.9 215,494.1 586,371.5 					"/>
					<polygon class="st161" points="586,375.1 215,497.7 215,495.9 586,373.3 					"/>
					<polygon class="st162" points="586,376.9 215,499.6 215,497.7 586,375.1 					"/>
					<polygon class="st163" points="586,378.8 215,501.4 215,499.6 586,376.9 					"/>
					<polygon class="st164" points="586,380.6 215,503.2 215,501.4 586,378.8 					"/>
					<polygon class="st165" points="586,382.4 215,505 215,503.2 586,380.6 					"/>
					<polygon class="st166" points="586,384.2 215,506.9 215,505 586,382.4 					"/>
					<polygon class="st167" points="586,386 215,508.7 215,506.9 586,384.2 					"/>
					<polygon class="st168" points="586,387.9 215,510.5 215,508.7 586,386 					"/>
					<polygon class="st169" points="586,389.7 215,512.3 215,510.5 586,387.9 					"/>
					<polygon class="st170" points="586,391.5 215,514.1 215,512.3 586,389.7 					"/>
					<polygon class="st171" points="586,393.3 215,516 215,514.1 586,391.5 					"/>
					<polygon class="st172" points="586,395.2 215,517.8 215,516 586,393.3 					"/>
					<polygon class="st173" points="586,397 215.3,519.5 215,519.5 215,517.8 586,395.2 					"/>
					<polygon class="st174" points="586,398.8 220.8,519.5 215.3,519.5 586,397 					"/>
					<polygon class="st175" points="586,400.6 226.3,519.5 220.8,519.5 586,398.8 					"/>
					<polygon class="st176" points="586,402.4 231.8,519.5 226.3,519.5 586,400.6 					"/>
					<polygon class="st177" points="586,404.3 237.4,519.5 231.8,519.5 586,402.4 					"/>
					<polygon class="st178" points="586,406.1 242.9,519.5 237.4,519.5 586,404.3 					"/>
					<polygon class="st179" points="586,407.9 248.4,519.5 242.9,519.5 586,406.1 					"/>
					<polygon class="st180" points="586,409.7 253.9,519.5 248.4,519.5 586,407.9 					"/>
					<polygon class="st181" points="586,411.5 259.4,519.5 253.9,519.5 586,409.7 					"/>
					<polygon class="st182" points="586,413.4 264.9,519.5 259.4,519.5 586,411.5 					"/>
					<polygon class="st183" points="586,415.2 270.4,519.5 264.9,519.5 586,413.4 					"/>
					<polygon class="st184" points="586,417 275.9,519.5 270.4,519.5 586,415.2 					"/>
					<polygon class="st185" points="586,418.8 281.4,519.5 275.9,519.5 586,417 					"/>
					<polygon class="st186" points="586,420.7 287,519.5 281.4,519.5 586,418.8 					"/>
					<polygon class="st187" points="586,422.5 292.5,519.5 287,519.5 586,420.7 					"/>
					<polygon class="st188" points="586,424.3 298,519.5 292.5,519.5 586,422.5 					"/>
					<polygon class="st189" points="586,426.1 303.5,519.5 298,519.5 586,424.3 					"/>
					<polygon class="st190" points="586,427.9 309,519.5 303.5,519.5 586,426.1 					"/>
					<polygon class="st191" points="586,429.8 314.5,519.5 309,519.5 586,427.9 					"/>
					<polygon class="st192" points="586,431.6 320,519.5 314.5,519.5 586,429.8 					"/>
					<polygon class="st193" points="586,433.4 325.5,519.5 320,519.5 586,431.6 					"/>
					<polygon class="st194" points="586,435.2 331,519.5 325.5,519.5 586,433.4 					"/>
					<polygon class="st195" points="586,437 336.5,519.5 331,519.5 586,435.2 					"/>
					<polygon class="st196" points="586,438.9 342.1,519.5 336.5,519.5 586,437 					"/>
					<polygon class="st197" points="586,440.7 347.6,519.5 342.1,519.5 586,438.9 					"/>
					<polygon class="st198" points="586,442.5 353.1,519.5 347.6,519.5 586,440.7 					"/>
					<polygon class="st199" points="586,444.3 358.6,519.5 353.1,519.5 586,442.5 					"/>
					<polygon class="st200" points="586,446.2 364.1,519.5 358.6,519.5 586,444.3 					"/>
					<polygon class="st201" points="586,448 369.6,519.5 364.1,519.5 586,446.2 					"/>
					<polygon class="st202" points="586,449.8 375.1,519.5 369.6,519.5 586,448 					"/>
					<polygon class="st203" points="586,451.6 380.6,519.5 375.1,519.5 586,449.8 					"/>
					<polygon class="st204" points="586,453.4 386.1,519.5 380.6,519.5 586,451.6 					"/>
					<polygon class="st205" points="586,455.3 391.6,519.5 386.1,519.5 586,453.4 					"/>
					<polygon class="st206" points="586,457.1 397.2,519.5 391.6,519.5 586,455.3 					"/>
					<polygon class="st207" points="586,458.9 402.7,519.5 397.2,519.5 586,457.1 					"/>
					<polygon class="st208" points="586,460.7 408.2,519.5 402.7,519.5 586,458.9 					"/>
					<polygon class="st209" points="586,462.5 413.7,519.5 408.2,519.5 586,460.7 					"/>
					<polygon class="st210" points="586,464.4 419.2,519.5 413.7,519.5 586,462.5 					"/>
					<polygon class="st211" points="586,466.2 424.7,519.5 419.2,519.5 586,464.4 					"/>
					<polygon class="st212" points="586,468 430.2,519.5 424.7,519.5 586,466.2 					"/>
					<polygon class="st213" points="586,469.8 435.7,519.5 430.2,519.5 586,468 					"/>
					<polygon class="st214" points="586,471.7 441.2,519.5 435.7,519.5 586,469.8 					"/>
					<polygon class="st215" points="586,473.5 446.8,519.5 441.2,519.5 586,471.7 					"/>
					<polygon class="st215" points="446.8,519.5 586,473.5 586,519.5 					"/>
				</g>
			</g>
			<g class="st216">
				<path class="st217" d="M310.3,394.4v-72.2h-15.5v-21.5h15.5v-5c0-20,12.8-32.6,31.6-32.6c8.9,0,18.4,2.3,24.5,8.7l-9.3,14.6
					c-2.5-2.5-5.8-3.9-10.3-3.9c-6.8,0-11.6,4.5-11.6,13.2v5h19v21.5h-19v72.2H310.3z"/>
				<path class="st217" d="M373.2,371.1v-48.9h-15.5v-21.5h15.5V275h24.8v25.6h19v21.5h-19v42.3c0,5.8,3.1,10.3,8.5,10.3
					c3.7,0,7.2-1.4,8.5-2.7l5.2,18.6c-3.7,3.3-10.3,6-20.6,6C382.5,396.7,373.2,387.8,373.2,371.1z"/>
				<path class="st217" d="M428,347.4c0-28.7,20.8-49.1,49.7-49.1c19.2,0,30.9,8.3,37.1,16.9l-16.1,15.1
					c-4.5-6.6-11.3-10.1-19.8-10.1c-14.9,0-25.4,10.9-25.4,27.2c0,16.3,10.5,27.4,25.4,27.4c8.5,0,15.3-3.9,19.8-10.1l16.1,14.9
					c-6.2,8.7-17.9,17.1-37.1,17.1C448.7,396.7,428,376.3,428,347.4z"/>
			</g>
			<g id="Ellipse_6">
				<circle class="st217" cx="479.4" cy="346.9" r="12.9"/>
			</g>
		</g>
	</g>
</g>
</svg>
