<?xml version="1.0" encoding="utf-8"?>
<!-- Generator: Adobe Illustrator 22.1.0, SVG Export Plug-In . SVG Version: 6.00 Build 0)  -->
<svg version="1.1" id="Layer_1" xmlns="http://www.w3.org/2000/svg" xmlns:xlink="http://www.w3.org/1999/xlink" x="0px" y="0px"
	 viewBox="0 0 512 512" style="enable-background:new 0 0 512 512;" xml:space="preserve">
<style type="text/css">
	.st0{opacity:0.75;}
	.st1{fill:#7D67F0;}
	.st2{opacity:0.6;fill:#4C46BC;enable-background:new    ;}
	.st3{fill:url(#Path_403_1_);}
	.st4{fill:url(#Ellipse_51_1_);}
	.st5{fill:#FFFFFF;}
</style>
<g id="Group_177" transform="translate(-118 -258)">
	<g id="Group_172" class="st0">
		<ellipse id="Ellipse_50" class="st1" cx="346.7" cy="676.8" rx="49.8" ry="49.7"/>
		<path id="Path_400" class="st2" d="M346.7,627.1c-4.9,0-9.8,0.7-14.5,2.1c21,6.3,35.3,25.7,35.3,47.6c0,21.9-14.4,41.2-35.3,47.6
			c4.7,1.4,9.6,2.1,14.5,2.1c27.5,0,49.8-22.2,49.8-49.7l0,0C396.4,649.3,374.2,627.1,346.7,627.1L346.7,627.1z"/>
		<path id="Path_401" class="st1" d="M352.5,386.7c-16,3.2-31.5-7.1-34.8-23.1c-3.2-16,7.1-31.5,23.1-34.7c0,0,0,0,0,0
			c16-3.2,31.5,7.1,34.8,23.1C378.8,368,368.5,383.5,352.5,386.7C352.5,386.7,352.5,386.7,352.5,386.7z"/>
		<path id="Path_402" class="st2" d="M375.6,352c-3.2-16-18.8-26.3-34.8-23.1c-1.5,0.3-2.9,0.7-4.3,1.2c9.7,3.5,16.8,11.8,18.8,21.9
			c2.9,14.3-5.1,28.5-18.8,33.5c5.1,1.9,10.6,2.3,15.9,1.2C368.5,383.6,378.8,368,375.6,352C375.6,352.1,375.6,352.1,375.6,352z"/>
		
			<linearGradient id="Path_403_1_" gradientUnits="userSpaceOnUse" x1="119.9151" y1="767.6503" x2="122.5255" y2="767.6503" gradientTransform="matrix(125.072 0 0 -111.878 -14814.5596 86405.6641)">
			<stop  offset="0" style="stop-color:#EB85E1"/>
			<stop  offset="1" style="stop-color:#134AFF"/>
		</linearGradient>
		<path id="Path_403" class="st3" d="M470,668.5H223.4c-22,0-39.9-17.8-39.9-39.9l0,0c0-12.2,5.5-23.7,15-31.4l7.9-6.4
			c18.3-14.7,29-37,29-60.5v-41.9c0.1-61.9,50.3-112,112.1-112l0,0c61.9-0.1,112.1,50.1,112.2,112c0,0,0,0,0,0v42.7
			c0,23.1,10.3,44.9,28,59.7l7.7,6.4c9.2,7.7,14.5,19,14.5,31v0.4C509.9,650.6,492,668.5,470,668.5C470,668.5,470,668.5,470,668.5z"
			/>
		<path id="Path_404" class="st2" d="M495.4,597.2l-7.7-6.4c-17.7-14.8-28-36.6-28-59.7v-42.7c0-61.9-50.3-112-112.1-112
			c0,0,0,0,0,0l0,0c-10.7,0-21.3,1.5-31.6,4.5c47.7,14,80.5,57.7,80.6,107.5v42.7c0,23.1,10.3,44.9,28,59.7l7.7,6.4
			c9.2,7.7,14.5,19,14.5,31v0.4c0,22-17.9,39.9-39.9,39.9H470c22,0,39.9-17.8,39.9-39.9v-0.4C509.9,616.2,504.6,604.9,495.4,597.2z"
			/>
	</g>
	
		<linearGradient id="Ellipse_51_1_" gradientUnits="userSpaceOnUse" x1="121.9935" y1="767.2162" x2="124.6039" y2="767.2162" gradientTransform="matrix(73.752 0 0 -73.632 -8641.459 56889.2734)">
		<stop  offset="0" style="stop-color:#EB85E1"/>
		<stop  offset="1" style="stop-color:#134AFF"/>
	</linearGradient>
	<ellipse id="Ellipse_51" class="st4" cx="452.1" cy="397.6" rx="96.3" ry="96.1"/>
	<path id="Path_405" class="st2" d="M477.9,305c25.5,18,40.6,47.2,40.6,78.4c0,53.1-43.1,96.1-96.3,96.1c0,0,0,0,0,0
		c-8.7,0-17.4-1.2-25.8-3.5c16.3,11.6,35.7,17.7,55.7,17.7c53.1,0,96.2-43,96.3-96.1c0,0,0,0,0,0C548.3,354.4,519.5,316.6,477.9,305
		z"/>
	<path id="Path_406" class="st5" d="M450.2,366.1c-14.3,0-23.1,12.9-23.1,33.6c0.2,20.5,8.7,33.2,22.1,33.2
		c14.7,0,23.1-12.4,23.1-34C472.3,378.3,464.1,366.1,450.2,366.1z M449.7,422.2c-6.2,0-10.1-8.6-10.1-22.5c0-14,4-23.1,10.2-23.1
		c8.8,0,10.1,14.1,10.1,22.5C459.9,407.8,458.6,422.2,449.7,422.2L449.7,422.2z"/>
</g>
</svg>
