<?xml version="1.0" encoding="utf-8"?>
<!-- Generator: Adobe Illustrator 22.1.0, SVG Export Plug-In . SVG Version: 6.00 Build 0)  -->
<svg version="1.1" id="Layer_1" xmlns="http://www.w3.org/2000/svg" xmlns:xlink="http://www.w3.org/1999/xlink" x="0px" y="0px"
	 viewBox="0 0 512 512" style="enable-background:new 0 0 512 512;" xml:space="preserve">
<style type="text/css">
	.st0{fill:#FFFFFF;}
	.st1{fill:#9B9B9B;}
	.st2{fill:#7D67F0;}
	.st3{fill:#606060;}
	.st4{fill:#707070;}
</style>
<g id="Group_176" transform="translate(-32 -446.083)">
	<g id="Path_79">
		<path class="st4" d="M288.1,886.2l-69-60.4c-55.9-47-88.7-116.1-89.7-189.3v-24.7L288,518l158.6,93.8v24.6
			c-1,73.3-33.7,142.3-89.6,189.5L288.1,886.2z M145.7,621.1v15.3c1,68.4,31.6,132.9,84,177l58.3,51.1l58.2-51
			c52.5-44.2,83-108.8,84-177.3v-15.2L288,536.9L145.7,621.1z"/>
	</g>
	<g id="Path_79-2">
		<polygon class="st4" points="267.1,749.2 215.9,698 227.5,686.5 267.1,726.1 351,642.2 362.6,653.7 		"/>
	</g>
</g>
</svg>
