<?xml version="1.0" encoding="utf-8"?>
<!-- Generator: Adobe Illustrator 22.1.0, SVG Export Plug-In . SVG Version: 6.00 Build 0)  -->
<svg version="1.1" id="Layer_1" xmlns="http://www.w3.org/2000/svg" xmlns:xlink="http://www.w3.org/1999/xlink" x="0px" y="0px"
	 viewBox="0 0 512 512" style="enable-background:new 0 0 512 512;" xml:space="preserve">
<style type="text/css">
	.st0{fill:#FFFFFF;}
	.st1{fill:#9B9B9B;}
	.st2{fill:#7D67F0;}
</style>
<g id="Group_132" transform="translate(176 -14)">
	<g id="Rectangle_36" transform="translate(138 755)">
		<g>
			<path class="st0" d="M-58-660.4L-58-660.4c50.4,0,91.2,40.8,91.2,91.2v3.5c0,25.2-20.4,45.6-45.6,45.6h-91.2
				c-25.2,0-45.6-20.4-45.6-45.6v-3.5C-149.2-619.6-108.4-660.4-58-660.4z"/>
		</g>
		<g>
			<path class="st1" d="M-13.7-520.1h-88.6c-25.9,0-46.9-21-46.9-46.9v-2.2c0-50.3,40.9-91.2,91.2-91.2s91.2,40.9,91.2,91.2v2.2
				C33.2-541.1,12.2-520.1-13.7-520.1z M-58-646.4c-42.5,0-77.2,34.6-77.2,77.2v2.2c0,18.1,14.7,32.9,32.9,32.9h88.6
				c18.1,0,32.9-14.7,32.9-32.9v-2.2C19.2-611.7-15.5-646.4-58-646.4z"/>
		</g>
	</g>
	<g id="Rectangle_34-2" transform="translate(133 766)">
		<g>
			<path class="st0" d="M-83.4-517h60.8c72.3,0,131,58.6,131,130.9c0,0,0,0,0,0l0,0c0,36.2-29.3,65.5-65.5,65.5h-191.8
				c-36.2,0-65.5-29.3-65.5-65.5l0,0C-214.4-458.4-155.7-517-83.4-517C-83.4-517-83.4-517-83.4-517z"/>
		</g>
		<g>
			<path class="st1" d="M42.7-320.6h-191.4c-36.2,0-65.7-29.5-65.7-65.7c0-72.1,58.7-130.8,130.8-130.8h61.1h0
				c72.1,0,130.8,58.7,130.8,130.8C108.4-350.1,78.9-320.6,42.7-320.6z M-83.6-503c-64.4,0-116.8,52.4-116.8,116.8
				c0,28.5,23.2,51.6,51.6,51.6H42.7c28.5,0,51.6-23.2,51.6-51.6C94.3-450.6,41.9-503-22.4-503c0,0,0,0,0,0H-83.6z"/>
		</g>
	</g>
	<g id="Path_96">
		<path class="st1" d="M71.8,408H12.6c-3.9,0-7-3.1-7-7c0-3.9,3.1-7,7-7h59.2c3.9,0,7,3.1,7,7C78.9,404.9,75.7,408,71.8,408z"/>
	</g>
	<g id="Path_97">
		<path class="st1" d="M31.7,383.3h-58.8c-3.9,0-7-3.1-7-7c0-3.9,3.1-7,7-7h58.8c3.9,0,7,3.1,7,7C38.7,380.1,35.6,383.3,31.7,383.3z
			"/>
	</g>
</g>
</svg>
