<?xml version="1.0" encoding="utf-8"?>
<!-- Generator: Adobe Illustrator 22.1.0, SVG Export Plug-In . SVG Version: 6.00 Build 0)  -->
<svg version="1.1" id="Layer_1" xmlns="http://www.w3.org/2000/svg" xmlns:xlink="http://www.w3.org/1999/xlink" x="0px" y="0px"
	 viewBox="0 0 512 512" style="enable-background:new 0 0 512 512;" xml:space="preserve">
<style type="text/css">
	.st0{fill:#FFFFFF;}
	.st1{fill:#9B9B9B;}
	.st2{fill:#7D67F0;}
</style>
<g>
	<path class="st0" d="M256,80.6L256,80.6c50.4,0,91.2,40.8,91.2,91.2v3.5c0,25.2-20.4,45.6-45.6,45.6h-91.2
		c-25.2,0-45.6-20.4-45.6-45.6v-3.5C164.8,121.4,205.6,80.6,256,80.6z"/>
</g>
<g>
	<path class="st2" d="M300.3,220.9h-88.6c-25.9,0-46.9-21-46.9-46.9v-2.2c0-50.3,40.9-91.2,91.2-91.2s91.2,40.9,91.2,91.2v2.2
		C347.2,199.9,326.2,220.9,300.3,220.9z M256,94.6c-42.5,0-77.2,34.6-77.2,77.2v2.2c0,18.1,14.7,32.9,32.9,32.9h88.6
		c18.1,0,32.9-14.7,32.9-32.9v-2.2C333.2,129.3,298.5,94.6,256,94.6z"/>
</g>
<g>
	<path class="st0" d="M225.6,235h60.8c72.3,0,131,58.6,131,130.9c0,0,0,0,0,0l0,0c0,36.2-29.3,65.5-65.5,65.5H160.1
		c-36.2,0-65.5-29.3-65.5-65.5l0,0C94.6,293.6,153.3,235,225.6,235C225.6,235,225.6,235,225.6,235z"/>
</g>
<g>
	<path class="st2" d="M351.7,431.4H160.3c-36.2,0-65.7-29.5-65.7-65.7c0-72.1,58.7-130.8,130.8-130.8h61.1h0
		c72.1,0,130.8,58.7,130.8,130.8C417.4,401.9,387.9,431.4,351.7,431.4z M225.4,249c-64.4,0-116.8,52.4-116.8,116.8
		c0,28.5,23.2,51.6,51.6,51.6h191.4c28.5,0,51.6-23.2,51.6-51.6c0-64.4-52.4-116.8-116.8-116.8c0,0,0,0,0,0H225.4z"/>
</g>
<g id="Path_96">
	<path class="st2" d="M247.8,394h-59.2c-3.9,0-7-3.1-7-7c0-3.9,3.1-7,7-7h59.2c3.9,0,7,3.1,7,7C254.9,390.9,251.7,394,247.8,394z"/>
</g>
<g id="Path_97">
	<path class="st2" d="M207.7,369.3h-58.8c-3.9,0-7-3.1-7-7c0-3.9,3.1-7,7-7h58.8c3.9,0,7,3.1,7,7
		C214.7,366.1,211.6,369.3,207.7,369.3z"/>
</g>
</svg>
