<?xml version="1.0" encoding="utf-8"?>
<!-- Generator: Adobe Illustrator 22.1.0, SVG Export Plug-In . SVG Version: 6.00 Build 0)  -->
<svg version="1.1" id="Layer_1" xmlns="http://www.w3.org/2000/svg" xmlns:xlink="http://www.w3.org/1999/xlink" x="0px" y="0px"
	 viewBox="0 0 512 512" style="enable-background:new 0 0 512 512;" xml:space="preserve">
<style type="text/css">
	.st0{fill:#FFFFFF;}
	.st1{fill:#7D67F0;}
	.st2{fill:#9B9B9B;}
</style>
<g id="Group_126" transform="translate(0 -13)">
	<g id="Rectangle_34" transform="translate(46 755)">
		<g>
			<path class="st0" d="M118.8-654.4h182.4c38.7,0,70.2,31.4,70.2,70.2v196.4c0,38.7-31.4,70.2-70.2,70.2H118.8
				c-38.7,0-70.2-31.4-70.2-70.2v-196.4C48.6-623,80-654.4,118.8-654.4z"/>
		</g>
		<g>
			<path class="st1" d="M301.2-317.6H118.8c-38.7,0-70.2-31.5-70.2-70.2v-196.4c0-38.7,31.5-70.2,70.2-70.2h182.4
				c38.7,0,70.2,31.5,70.2,70.2v196.4C371.4-349.1,339.9-317.6,301.2-317.6z M118.8-640.3c-30.9,0-56.1,25.2-56.1,56.1v196.4
				c0,30.9,25.2,56.1,56.1,56.1h182.4c30.9,0,56.1-25.2,56.1-56.1v-196.4c0-30.9-25.2-56.1-56.1-56.1H118.8z"/>
		</g>
	</g>
	<g id="Path_75">
		<path class="st1" d="M357,186.3H165c-3.9,0-7-3.1-7-7c0-3.9,3.1-7,7-7H357c3.9,0,7,3.1,7,7C364,183.1,360.8,186.3,357,186.3z"/>
	</g>
	<g id="Path_76">
		<path class="st1" d="M357,243.9H165c-3.9,0-7-3.1-7-7c0-3.9,3.1-7,7-7H357c3.9,0,7,3.1,7,7C364,240.7,360.8,243.9,357,243.9z"/>
	</g>
	<g id="Path_77">
		<path class="st1" d="M357,301.5H165c-3.9,0-7-3.1-7-7s3.1-7,7-7H357c3.9,0,7,3.1,7,7S360.8,301.5,357,301.5z"/>
	</g>
	<g id="Path_78">
		<path class="st1" d="M357,359.1H165c-3.9,0-7-3.1-7-7s3.1-7,7-7H357c3.9,0,7,3.1,7,7S360.8,359.1,357,359.1z"/>
	</g>
</g>
</svg>
