<?xml version="1.0" encoding="utf-8"?>
<!-- Generator: Adobe Illustrator 22.1.0, SVG Export Plug-In . SVG Version: 6.00 Build 0)  -->
<svg version="1.1" id="Layer_1" xmlns="http://www.w3.org/2000/svg" xmlns:xlink="http://www.w3.org/1999/xlink" x="0px" y="0px"
	 viewBox="0 0 512 512" style="enable-background:new 0 0 512 512;" xml:space="preserve">
<style type="text/css">
	.st0{fill:#FFFFFF;}
	.st1{fill:#9B9B9B;}
	.st2{fill:#7D67F0;}
</style>
<g>
	<path class="st0" d="M164.8,87.6h182.4c38.7,0,70.2,31.4,70.2,70.2v196.4c0,38.7-31.4,70.2-70.2,70.2H164.8
		c-38.7,0-70.2-31.4-70.2-70.2V157.8C94.6,119,126,87.6,164.8,87.6z"/>
</g>
<g>
	<path class="st1" d="M347.2,424.4H164.8c-38.7,0-70.2-31.5-70.2-70.2V157.8c0-38.7,31.5-70.2,70.2-70.2h182.4
		c38.7,0,70.2,31.5,70.2,70.2v196.4C417.4,392.9,385.9,424.4,347.2,424.4z M164.8,101.7c-30.9,0-56.1,25.2-56.1,56.1v196.4
		c0,30.9,25.2,56.1,56.1,56.1h182.4c30.9,0,56.1-25.2,56.1-56.1V157.8c0-30.9-25.2-56.1-56.1-56.1H164.8z"/>
</g>
<g id="Path_75">
	<path class="st1" d="M357,173.3H165c-3.9,0-7-3.1-7-7c0-3.9,3.1-7,7-7H357c3.9,0,7,3.1,7,7C364,170.1,360.8,173.3,357,173.3z"/>
</g>
<g id="Path_76">
	<path class="st1" d="M357,230.9H165c-3.9,0-7-3.1-7-7c0-3.9,3.1-7,7-7H357c3.9,0,7,3.1,7,7C364,227.7,360.8,230.9,357,230.9z"/>
</g>
<g id="Path_77">
	<path class="st1" d="M357,288.5H165c-3.9,0-7-3.1-7-7s3.1-7,7-7H357c3.9,0,7,3.1,7,7S360.8,288.5,357,288.5z"/>
</g>
<g id="Path_78">
	<path class="st1" d="M357,346.1H165c-3.9,0-7-3.1-7-7s3.1-7,7-7H357c3.9,0,7,3.1,7,7S360.8,346.1,357,346.1z"/>
</g>
</svg>
