<?xml version="1.0" encoding="utf-8"?>
<!-- Generator: Adobe Illustrator 22.1.0, SVG Export Plug-In . SVG Version: 6.00 Build 0)  -->
<svg version="1.1" id="Layer_1" xmlns="http://www.w3.org/2000/svg" xmlns:xlink="http://www.w3.org/1999/xlink" x="0px" y="0px"
	 viewBox="0 0 512 512" style="enable-background:new 0 0 512 512;" xml:space="preserve">
<style type="text/css">
	.st0{fill:#FFFFFF;}
	.st1{fill:#9B9B9B;}
	.st2{fill:#7D67F0;}
</style>
<g>
	<circle class="st0" cx="230.2" cy="227.5" r="126.3"/>
</g>
<g>
	<path class="st2" d="M230.2,353.7c-69.6,0-126.3-56.7-126.3-126.3s56.7-126.3,126.3-126.3s126.3,56.7,126.3,126.3
		S299.8,353.7,230.2,353.7z M230.2,115.2c-61.9,0-112.3,50.4-112.3,112.3s50.4,112.3,112.3,112.3s112.3-50.4,112.3-112.3
		S292.1,115.2,230.2,115.2z"/>
</g>
<g id="Path_398">
	<path class="st2" d="M401.1,410.8c-1.9,0-3.8-0.8-5.1-2.2l-82.7-89c-2.6-2.8-2.5-7.3,0.4-9.9c2.8-2.6,7.3-2.5,9.9,0.4l82.7,89
		c2.6,2.8,2.5,7.3-0.4,9.9C404.5,410.2,402.8,410.8,401.1,410.8z"/>
</g>
<path class="st2" d="M148.2,223.1c-0.5,0-1,0-1.5-0.2c-3.8-0.8-6.2-4.5-5.4-8.3c0.2-0.8,17.2-77,96.3-75.9c3.9,0.1,7,3.2,6.9,7.1
	c-0.1,3.8-3.2,6.9-7,6.9c-0.5-0.1-1.2,0-1.8,0c-65.9,0-80.1,62.1-80.7,64.8C154.4,220.8,151.5,223.1,148.2,223.1z"/>
</svg>
