<?xml version="1.0" encoding="utf-8"?>
<!-- Generator: Adobe Illustrator 22.1.0, SVG Export Plug-In . SVG Version: 6.00 Build 0)  -->
<svg version="1.1" id="Layer_1" xmlns="http://www.w3.org/2000/svg" xmlns:xlink="http://www.w3.org/1999/xlink" x="0px" y="0px"
	 viewBox="0 0 512 512" style="enable-background:new 0 0 512 512;" xml:space="preserve">
<style type="text/css">
	.st0{fill:#FFFFFF;}
	.st1{fill:#9B9B9B;}
	.st2{fill:#7D67F0;}
</style>
<g>
	<g id="Ellipse_48" transform="translate(133 743)">
		<g>
			<circle class="st0" cx="97.2" cy="-515.5" r="126.3"/>
		</g>
		<g>
			<path class="st1" d="M97.2-389.3c-69.6,0-126.3-56.7-126.3-126.3S27.6-641.8,97.2-641.8s126.3,56.7,126.3,126.3
				S166.8-389.3,97.2-389.3z M97.2-627.8C35.3-627.8-15-577.4-15-515.5S35.3-403.3,97.2-403.3s112.3-50.4,112.3-112.3
				S159.1-627.8,97.2-627.8z"/>
		</g>
	</g>
	<g id="Group_133" transform="translate(0 -14)">
		<g id="Path_398">
			<path class="st1" d="M401.1,424.8c-1.9,0-3.8-0.8-5.1-2.2l-82.7-89c-2.6-2.8-2.5-7.3,0.4-9.9c2.8-2.6,7.3-2.5,9.9,0.4l82.7,89
				c2.6,2.8,2.5,7.3-0.4,9.9C404.5,424.2,402.8,424.8,401.1,424.8z"/>
		</g>
	</g>
	<g id="Path_399">
		<path class="st1" d="M148.2,223.1c-0.5,0-1,0-1.5-0.2c-3.8-0.8-6.2-4.5-5.4-8.3c0.2-0.8,17.2-77,96.3-75.9c3.9,0.1,7,3.2,6.9,7.1
			c-0.1,3.8-3.2,6.9-7,6.9c-0.5-0.1-1.2,0-1.8,0c-65.9,0-80.1,62.1-80.7,64.8C154.4,220.8,151.5,223.1,148.2,223.1z"/>
	</g>
</g>
</svg>
